<?xml version="1.0" standalone="no"?>
<!DOCTYPE svg PUBLIC "-//W3C//DTD SVG 20010904//EN"
 "http://www.w3.org/TR/2001/REC-SVG-20010904/DTD/svg10.dtd">
<svg version="1.0" xmlns="http://www.w3.org/2000/svg"
 width="700.000000pt" height="700.000000pt" viewBox="0 0 700.000000 700.000000"
 preserveAspectRatio="xMidYMid meet">
<metadata>
Created by potrace 1.11, written by Peter Selinger 2001-2013
</metadata>
<g transform="translate(0.000000,700.000000) scale(0.100000,-0.100000)"
fill="#000000" stroke="none">
<path d="M490 6978 c-150 -47 -256 -156 -301 -308 -20 -67 -23 -6213 -4 -6311
33 -166 152 -293 324 -345 67 -20 5900 -21 5976 0 113 30 206 96 267 190 79
122 71 -208 73 3281 2 3382 5 3166 -51 3277 -51 102 -169 194 -289 227 -29 8
-876 11 -2985 10 -2936 0 -2945 0 -3010 -21z m700 -409 c66 -37 70 -55 70
-327 0 -233 -5 -279 -33 -306 -45 -44 -50 -45 -301 -46 -271 0 -292 4 -330 70
-19 32 -20 52 -20 280 -1 359 -11 348 341 350 224 1 236 0 273 -21z m5165 2
c16 -10 39 -33 49 -51 19 -31 20 -53 20 -280 0 -361 11 -350 -344 -350 -352 0
-341 -11 -340 350 0 278 4 295 73 330 39 19 58 20 277 19 202 -1 239 -4 265
-18z m-1138 -327 c15 -11 36 -36 45 -55 17 -32 18 -106 18 -1124 0 -1018 -1
-1092 -18 -1124 -9 -19 -30 -44 -45 -55 l-28 -21 -1687 0 -1687 0 -34 24 c-64
46 -61 -17 -61 1181 0 1170 -2 1118 49 1164 12 11 38 22 58 25 20 3 785 6
1699 6 l1663 0 28 -21z m-4029 -768 c18 -9 42 -31 53 -49 18 -30 19 -48 17
-294 l-3 -262 -29 -30 c-16 -16 -41 -34 -55 -39 -14 -5 -132 -8 -261 -7 -345
1 -333 -11 -335 340 -1 132 3 252 7 266 15 44 61 80 113 87 27 4 141 7 254 6
174 -1 211 -3 239 -18z m5169 -3 c15 -10 36 -32 47 -47 19 -25 20 -41 20 -279
0 -367 13 -354 -352 -352 -228 0 -243 2 -269 21 -60 45 -63 57 -63 327 -1 363
-12 353 359 351 214 -1 234 -3 258 -21z m-5172 -1090 c11 -6 31 -23 45 -38
l25 -27 3 -259 c3 -251 2 -261 -18 -295 -38 -61 -52 -64 -319 -64 -252 -1
-274 3 -312 46 -30 35 -35 79 -34 314 1 197 4 240 18 266 17 33 49 59 82 66
44 10 490 2 510 -9z m5169 -3 c16 -8 39 -33 50 -55 20 -37 21 -55 21 -280 -1
-266 -5 -282 -64 -322 -33 -22 -40 -23 -279 -23 -357 0 -343 -15 -342 346 0
280 4 299 70 332 36 17 61 19 277 18 189 -1 244 -4 267 -16z m-5164 -1095 c15
-8 38 -30 49 -48 20 -32 21 -48 21 -277 0 -157 -4 -255 -11 -275 -7 -17 -28
-42 -47 -56 -35 -24 -37 -24 -286 -24 -357 0 -342 -15 -341 356 2 352 -12 339
343 339 195 0 249 -3 272 -15z m5188 -18 c17 -16 34 -45 39 -65 5 -21 8 -140
8 -267 -2 -344 13 -330 -340 -330 -361 0 -345 -16 -345 350 0 249 2 267 39
305 37 38 51 40 313 37 l257 -2 29 -28z m-1161 -313 c15 -11 36 -36 46 -55 16
-32 17 -97 15 -1054 -3 -983 -4 -1021 -22 -1048 -43 -63 86 -59 -1757 -59
-1673 0 -1679 0 -1711 20 -67 42 -63 -37 -65 1093 l-3 1026 23 33 c49 72 -103
66 1765 66 l1681 -1 28 -21z m-4032 -761 c11 -6 31 -23 45 -38 l25 -27 3 -261
c4 -375 20 -357 -344 -359 l-245 -1 -37 30 c-23 19 -41 44 -47 69 -7 23 -11
132 -10 270 1 208 3 234 20 260 24 37 43 52 79 62 45 12 487 8 511 -5z m5165
-2 c14 -6 36 -28 50 -47 23 -35 24 -40 25 -267 0 -128 -2 -247 -6 -265 -8 -39
-43 -80 -79 -94 -14 -5 -131 -9 -261 -10 -262 0 -282 4 -319 65 -18 29 -20 52
-20 282 0 232 2 252 20 283 40 66 51 68 322 67 172 -1 250 -5 268 -14z m-5143
-1110 c18 -13 37 -38 43 -54 6 -18 10 -129 10 -269 0 -262 -4 -283 -58 -323
-25 -18 -46 -20 -262 -23 -275 -4 -298 0 -337 60 l-27 41 0 251 c0 249 0 252
23 285 42 58 59 61 331 58 241 -2 245 -2 277 -26z m5143 14 c16 -8 39 -29 51
-47 23 -31 23 -37 23 -283 0 -367 12 -355 -344 -355 -351 0 -341 -11 -340 348
0 281 4 299 77 337 41 22 491 22 533 0z"/>
</g>
</svg>
